<svg width="95" height="30" viewBox="0 0 95 30" fill="none" xmlns="http://www.w3.org/2000/svg">
    <path d="M83.2004 7.8728V16.0685C83.2004 18.8757 83.6431 20.854 84.5286 22.0033C85.433 23.1337 86.667 23.6989 88.2308 23.6989C89.7946 23.6989 91.0192 23.1337 91.9047 22.0033C92.8091 20.854 93.2613 18.8757 93.2613 16.0685V7.8728H94.1091V16.0685C94.1091 21.7207 92.1497 24.5467 88.2308 24.5467C84.312 24.5467 82.3525 21.7207 82.3525 16.0685V7.8728H83.2004Z"
          fill="#334155"/>
    <path d="M71.5531 24.2641H67.4835V7.8728H70.5922C72.8154 7.8728 74.4922 8.25903 75.6226 9.0315C76.7719 9.80397 77.3466 10.859 77.3466 12.1967C77.3466 13.7982 76.64 14.9569 75.227 15.6728C76.2632 16.0308 77.0357 16.5677 77.5444 17.2837C78.0531 17.9808 78.3074 18.7909 78.3074 19.7141C78.3074 21.0706 77.7422 22.1728 76.6118 23.0207C75.5002 23.8496 73.8139 24.2641 71.5531 24.2641ZM71.5531 23.4163C73.211 23.4163 74.6052 23.1149 75.7357 22.512C76.885 21.9091 77.4596 20.9764 77.4596 19.7141C77.4596 19.1301 77.2429 18.4989 76.8096 17.8206C76.3763 17.1235 75.7074 16.6148 74.8031 16.2946L73.3335 15.7859L74.69 15.0793C75.161 14.8344 75.5755 14.467 75.9335 13.9772C76.3103 13.4685 76.4987 12.875 76.4987 12.1967C76.4987 11.0098 75.9335 10.1337 74.8031 9.56846C73.6726 9.00324 72.269 8.72063 70.5922 8.72063H68.3313V23.4163H71.5531Z"
          fill="#334155"/>
    <path d="M53.7745 23.4163H62.9876L57.1941 9.7663L51.0332 24.2642H50.1289L57.1941 7.59021L64.2593 24.2642H53.7745V23.4163Z"
          fill="#334155"/>
    <path d="M35.9935 24.2641V7.8728H36.8414L46.0544 22.7098V7.8728H46.9022V24.2641H46.0544L36.8414 9.39889V24.2641H35.9935Z"
          fill="#334155"/>
    <path d="M22.2846 23.4163H31.4976L25.7041 9.7663L19.5433 24.2642H18.6389L25.7041 7.59021L32.7694 24.2642H22.2846V23.4163Z"
          fill="#334155"/>
    <path d="M3.32131 23.4163H14.4561V6.48803L8.0974 20.1098L1.7387 6.45977V24.2641L0.890869 24.2359V4.45325H1.7387L8.0974 18.1033L14.4561 4.48151L15.3039 4.45325V24.2641L3.32131 24.2359V23.4163Z"
          fill="#334155"/>
</svg>
