<svg
    id="visual"
    viewBox="0 0 540 960"
    width="540"
    height="960"
    xmlns="http://www.w3.org/2000/svg"
    xmlns:xlink="http://www.w3.org/1999/xlink"
    version="1.1"
>
    <path
        d="M0 78L15 73.2C30 68.3 60 58.7 90 55.5C120 52.3 150 55.7 180 62C210 68.3 240 77.7 270 74.3C300 71 330 55 360 51.8C390 48.7 420 58.3 450 64.8C480 71.3 510 74.7 525 76.3L540 78L540 0L525 0C510 0 480 0 450 0C420 0 390 0 360 0C330 0 300 0 270 0C240 0 210 0 180 0C150 0 120 0 90 0C60 0 30 0 15 0L0 0Z"
        fill="#8175de"
    ></path>
    <path
        d="M0 126L15 122.8C30 119.7 60 113.3 90 113.3C120 113.3 150 119.7 180 132.3C210 145 240 164 270 160.8C300 157.7 330 132.3 360 122.8C390 113.3 420 119.7 450 122.8C480 126 510 126 525 126L540 126L540 76L525 74.3C510 72.7 480 69.3 450 62.8C420 56.3 390 46.7 360 49.8C330 53 300 69 270 72.3C240 75.7 210 66.3 180 60C150 53.7 120 50.3 90 53.5C60 56.7 30 66.3 15 71.2L0 76Z"
        fill="#5c4fd2"
    ></path>
    <path
        d="M0 251L15 246.2C30 241.3 60 231.7 90 225.2C120 218.7 150 215.3 180 218.5C210 221.7 240 231.3 270 239.3C300 247.3 330 253.7 360 248.8C390 244 420 228 450 224.8C480 221.7 510 231.3 525 236.2L540 241L540 124L525 124C510 124 480 124 450 120.8C420 117.7 390 111.3 360 120.8C330 130.3 300 155.7 270 158.8C240 162 210 143 180 130.3C150 117.7 120 111.3 90 111.3C60 111.3 30 117.7 15 120.8L0 124Z"
        fill="#3d35bd"
    ></path>
    <path
        d="M0 308L15 301.7C30 295.3 60 282.7 90 276.3C120 270 150 270 180 276.3C210 282.7 240 295.3 270 303.3C300 311.3 330 314.7 360 309.8C390 305 420 292 450 292C480 292 510 305 525 311.5L540 318L540 239L525 234.2C510 229.3 480 219.7 450 222.8C420 226 390 242 360 246.8C330 251.7 300 245.3 270 237.3C240 229.3 210 219.7 180 216.5C150 213.3 120 216.7 90 223.2C60 229.7 30 239.3 15 244.2L0 249Z"
        fill="#2f2d9c"
    ></path>
    <path
        d="M0 558L15 540.3C30 522.7 60 487.3 90 468.2C120 449 150 446 180 468.5C210 491 240 539 270 559.7C300 580.3 330 573.7 360 564C390 554.3 420 541.7 450 527.3C480 513 510 497 525 489L540 481L540 316L525 309.5C510 303 480 290 450 290C420 290 390 303 360 307.8C330 312.7 300 309.3 270 301.3C240 293.3 210 280.7 180 274.3C150 268 120 268 90 274.3C60 280.7 30 293.3 15 299.7L0 306Z"
        fill="#2d2b95"
    ></path>
    <path
        d="M0 663L15 659.8C30 656.7 60 650.3 90 663.2C120 676 150 708 180 727.2C210 746.3 240 752.7 270 747.8C300 743 330 727 360 722.3C390 717.7 420 724.3 450 719.7C480 715 510 699 525 691L540 683L540 479L525 487C510 495 480 511 450 525.3C420 539.7 390 552.3 360 562C330 571.7 300 578.3 270 557.7C240 537 210 489 180 466.5C150 444 120 447 90 466.2C60 485.3 30 520.7 15 538.3L0 556Z"
        fill="#2f2d9c"
    ></path>
    <path
        d="M0 759L15 752.7C30 746.3 60 733.7 90 740.2C120 746.7 150 772.3 180 786.7C210 801 240 804 270 799.2C300 794.3 330 781.7 360 781.7C390 781.7 420 794.3 450 792.7C480 791 510 775 525 767L540 759L540 681L525 689C510 697 480 713 450 717.7C420 722.3 390 715.7 360 720.3C330 725 300 741 270 745.8C240 750.7 210 744.3 180 725.2C150 706 120 674 90 661.2C60 648.3 30 654.7 15 657.8L0 661Z"
        fill="#3d35bd"
    ></path>
    <path
        d="M0 932L15 925.7C30 919.3 60 906.7 90 905.2C120 903.7 150 913.3 180 919.7C210 926 240 929 270 930.5C300 932 330 932 360 928.8C390 925.7 420 919.3 450 917.8C480 916.3 510 919.7 525 921.3L540 923L540 757L525 765C510 773 480 789 450 790.7C420 792.3 390 779.7 360 779.7C330 779.7 300 792.3 270 797.2C240 802 210 799 180 784.7C150 770.3 120 744.7 90 738.2C60 731.7 30 744.3 15 750.7L0 757Z"
        fill="#5c4fd2"
    ></path>
    <path
        d="M0 961L15 961C30 961 60 961 90 961C120 961 150 961 180 961C210 961 240 961 270 961C300 961 330 961 360 961C390 961 420 961 450 961C480 961 510 961 525 961L540 961L540 921L525 919.3C510 917.7 480 914.3 450 915.8C420 917.3 390 923.7 360 926.8C330 930 300 930 270 928.5C240 927 210 924 180 917.7C150 911.3 120 901.7 90 903.2C60 904.7 30 917.3 15 923.7L0 930Z"
        fill="#8175de"
    ></path>
</svg>
